<svg xmlns="http://www.w3.org/2000/svg" viewBox="0 0 530 98" role="img" aria-labelledby="t d">
  <title id="t">路线决策台</title>
  <desc id="d">路线决策台品牌字标</desc>
  <defs>
    <linearGradient id="fill" x1="0" y1="0" x2="1" y2="0">
      <stop offset="0" stop-color="#006394"/>
      <stop offset="0.28" stop-color="#057eae"/>
      <stop offset="0.44" stop-color="#c87810"/>
      <stop offset="0.62" stop-color="#005b8b"/>
      <stop offset="1" stop-color="#4a5962"/>
    </linearGradient>
    <linearGradient id="top" x1="0" y1="0" x2="0" y2="1">
      <stop offset="0" stop-color="#dff8ff" stop-opacity="0.95"/>
      <stop offset="0.5" stop-color="#ffffff" stop-opacity="0.3"/>
      <stop offset="1" stop-color="#ffffff" stop-opacity="0"/>
    </linearGradient>
    <filter id="lift" x="-10%" y="-22%" width="126%" height="160%">
      <feDropShadow dx="0" dy="1" stdDeviation="0.45" flood-color="#ffffff" flood-opacity="0.95"/>
      <feDropShadow dx="3.3" dy="5" stdDeviation="1.05" flood-color="#162f39" flood-opacity="0.38"/>
      <feDropShadow dx="7" dy="9" stdDeviation="2.2" flood-color="#56646a" flood-opacity="0.18"/>
    </filter>
  </defs>
  <g filter="url(#lift)">
    <text x="7" y="70" font-family="Noto Sans SC, Source Han Sans SC, Microsoft YaHei, sans-serif" font-size="62" font-weight="1000" letter-spacing="-4" fill="url(#fill)" stroke="#f8fff9" stroke-width="6" paint-order="stroke fill">路线决策台</text>
    <text x="7" y="70" font-family="Noto Sans SC, Source Han Sans SC, Microsoft YaHei, sans-serif" font-size="62" font-weight="1000" letter-spacing="-4" fill="url(#top)" opacity="0.42">路线决策台</text>
    <g transform="translate(337 11)" opacity="0.9">
      <path d="M24 52 L47 17 L70 51" fill="none" stroke="#1f6b90" stroke-width="5" stroke-linecap="round"/>
      <path d="M47 17 L47 65" stroke="#c87810" stroke-width="6" stroke-linecap="round"/>
      <path d="M4 67 C31 39 68 39 101 66" fill="none" stroke="#53666c" stroke-width="3.5"/>
    </g>
    <g transform="translate(348 62)">
      <polyline points="0,16 36,3 72,23 109,7 149,20" fill="none" stroke="#263f47" stroke-width="3.5" stroke-linejoin="round"/>
      <g fill="#c87810" stroke="#fff7e9" stroke-width="2.3">
        <circle cx="0" cy="16" r="5.2"/><circle cx="36" cy="3" r="5.2"/><circle cx="72" cy="23" r="5.2"/><circle cx="109" cy="7" r="5.2"/><circle cx="149" cy="20" r="5.2"/>
      </g>
    </g>
  </g>
</svg>
