<svg xmlns="http://www.w3.org/2000/svg" viewBox="0 0 430 96" role="img" aria-labelledby="t d">
  <title id="t">气象山野</title>
  <desc id="d">气象山野品牌字标</desc>
  <defs>
    <linearGradient id="fill" x1="0" y1="0" x2="1" y2="0">
      <stop offset="0" stop-color="#0872aa"/>
      <stop offset="0.36" stop-color="#1691ac"/>
      <stop offset="0.62" stop-color="#096b45"/>
      <stop offset="1" stop-color="#6d6736"/>
    </linearGradient>
    <linearGradient id="top" x1="0" y1="0" x2="0" y2="1">
      <stop offset="0" stop-color="#d9fbff" stop-opacity="0.95"/>
      <stop offset="0.52" stop-color="#ffffff" stop-opacity="0.35"/>
      <stop offset="1" stop-color="#ffffff" stop-opacity="0"/>
    </linearGradient>
    <linearGradient id="ridge" x1="0" y1="1" x2="1" y2="0">
      <stop offset="0" stop-color="#f0fbf7"/>
      <stop offset="1" stop-color="#7fac86"/>
    </linearGradient>
    <filter id="lift" x="-12%" y="-24%" width="128%" height="164%">
      <feDropShadow dx="0" dy="1" stdDeviation="0.45" flood-color="#ffffff" flood-opacity="0.95"/>
      <feDropShadow dx="2.8" dy="4.5" stdDeviation="1" flood-color="#102f38" flood-opacity="0.36"/>
      <feDropShadow dx="6" dy="8" stdDeviation="2" flood-color="#47656b" flood-opacity="0.2"/>
    </filter>
  </defs>
  <g filter="url(#lift)">
    <path d="M245 72 L270 32 L287 52 L307 23 L354 72 Z" fill="url(#ridge)" stroke="#315e49" stroke-width="4" stroke-linejoin="round"/>
    <path d="M286 70 V36 M302 70 V45 M318 70 V39" stroke="#075d3c" stroke-width="10" stroke-linecap="round" opacity="0.9"/>
    <text x="8" y="68" font-family="Noto Serif SC, Source Han Serif SC, STSong, serif" font-size="62" font-weight="900" letter-spacing="-4" fill="url(#fill)" stroke="#f7fff9" stroke-width="6" paint-order="stroke fill">气象山野</text>
    <text x="8" y="68" font-family="Noto Serif SC, Source Han Serif SC, STSong, serif" font-size="62" font-weight="900" letter-spacing="-4" fill="url(#top)" opacity="0.46">气象山野</text>
    <path d="M72 31 C86 15 113 17 120 33 C125 45 113 52 103 47" fill="none" stroke="#e9fbff" stroke-width="7" stroke-linecap="round" opacity="0.95"/>
    <path d="M23 73 C104 82 190 79 262 72" fill="none" stroke="#103c45" stroke-width="3" opacity="0.3"/>
  </g>
</svg>
